<svg xmlns="http://www.w3.org/2000/svg" xmlns:xlink="http://www.w3.org/1999/xlink" width="175" height="36" viewBox="0 0 175 36">
    <defs>
        <path id="a" d="M0 35.797h174.898V0H0z"/>
    </defs>
    <g fill="none" fill-rule="evenodd">
        <path fill="#EE453D" d="M60.281 14.23c1.635 0 2.963.53 3.965 1.573 1.005 1.044 1.505 2.424 1.505 4.135v7.807h-4.077v-7.524c0-.772-.208-1.39-.61-1.843-.392-.45-.961-.683-1.682-.683-.732 0-1.314.233-1.75.7-.44.46-.657 1.08-.657 1.842v7.522h-4.078v-7.522c0-.788-.208-1.407-.604-1.859-.402-.45-.967-.667-1.702-.667-.732 0-1.313.231-1.748.693-.441.464-.66 1.084-.66 1.842v7.526h-4.08v-8.968c0-.657-.192-.98-.578-.98-.18 0-.308.038-.399.13l-.256-.13-.503-2.716.156-.298c.616-.373 1.3-.55 2.031-.55 1.288 0 2.216.486 2.768 1.478 1.185-.992 2.574-1.479 4.157-1.479 1.79 0 3.193.617 4.21 1.852 1.234-1.235 2.753-1.852 4.555-1.852l.037-.03zM83.185 27.27l-.153.297c-.618.371-1.326.554-2.11.554-.58 0-1.092-.13-1.557-.39a2.682 2.682 0 0 1-1.08-1.094c-1.16.994-2.462 1.484-3.902 1.484-1.801 0-3.205-.504-4.211-1.52-1-1.022-1.5-2.384-1.5-4.1v-7.908h4.065v7.625c0 .76.204 1.351.618 1.778.412.426.976.644 1.684.644s1.273-.235 1.714-.694c.435-.464.654-1.071.654-1.816v-7.548h4.067v8.964c0 .658.206.98.606.98.165 0 .294-.04.387-.13l.257.13.461 2.743zM94.646 26.859l-.1.295c-.89.618-1.93.93-3.116.93a5.394 5.394 0 0 1-1.877-.325 4.899 4.899 0 0 1-1.585-.942c-.464-.41-.825-.952-1.096-1.612-.267-.655-.41-1.403-.41-2.24v-5.386h-2.289v-2.998h2.29v-3.775l3.721-.503.306.192v4.086h3.874v2.998H90.49v4.96c0 .672.14 1.188.436 1.547.297.362.697.544 1.2.544.348 0 .72-.13 1.134-.39l.267.132 1.119 2.487zM96.818 10.276l3.77-.505.283.221v13.554c0 .658.192.98.579.98.18 0 .308-.04.4-.13l.257.13.501 2.716-.154.298c-.619.372-1.337.555-2.16.555-1.122 0-1.985-.336-2.59-1.005-.604-.672-.902-1.624-.902-2.849l.016-13.965zM119.177 27.27l-.152.297c-.619.371-1.324.554-2.11.554-.58 0-1.096-.13-1.56-.39a2.697 2.697 0 0 1-1.082-1.094c-1.158.994-2.455 1.484-3.896 1.484-1.807 0-3.207-.504-4.211-1.52-1.002-1.022-1.503-2.384-1.503-4.1v-7.908h4.065v7.625c0 .76.207 1.351.618 1.778.412.426.98.644 1.685.644.708 0 1.274-.235 1.711-.694.439-.464.659-1.071.659-1.816v-7.548h4.066v8.964c0 .658.207.98.605.98.167 0 .294-.04.388-.13l.253.13.464 2.743zM128.635 24.526c.948 0 1.723-.322 2.313-.968.593-.645.889-1.454.889-2.447-.012-.991-.321-1.816-.914-2.458-.59-.648-1.366-.969-2.316-.969-.936 0-1.714.309-2.317.926-.605.619-.902 1.456-.902 2.513s.297 1.894.902 2.515c.603.617 1.38.925 2.317.925l.028-.037zm.706-10.31c1.273 0 2.419.31 3.437.93a6.38 6.38 0 0 1 2.357 2.497c.552 1.045.82 2.218.82 3.506 0 1.277-.282 2.447-.835 3.506a6.337 6.337 0 0 1-2.355 2.509c-1.017.62-2.164.93-3.439.93-1.684 0-3.151-.595-4.401-1.779v1.457h-3.448v-17.47l3.77-.505.31.196v5.514c1.157-.838 2.417-1.248 3.77-1.248l.014-.043z"/>
        <mask id="b" fill="#fff">
            <use xlink:href="#a"/>
        </mask>
        <path fill="#EE453D" d="M138.6 27.758h4.057V14.566H138.6v13.192zm2.035-14.67c-.602 0-1.104-.21-1.521-.613-.414-.408-.62-.912-.62-1.514 0-.6.206-1.105.62-1.52a2.065 2.065 0 0 1 1.521-.626c.6 0 1.106.21 1.52.626.415.415.623.931.623 1.531 0 .605-.208 1.108-.623 1.512-.414.402-.92.614-1.52.614v-.01zM152.42 17.182c-.879 0-1.598.255-2.178.786-.578.527-.902 1.234-.966 2.139h6.243c-.074-.918-.4-1.638-.963-2.153-.568-.517-1.292-.772-2.166-.772h.03zm-3.131 5.036c.117.94.516 1.664 1.209 2.154.697.487 1.533.733 2.512.733a5.58 5.58 0 0 0 2.046-.384c.644-.262 1.183-.624 1.606-1.083h.298l1.842 1.778v.28c-.694.813-1.585 1.419-2.664 1.818a9.575 9.575 0 0 1-3.333.592 8.95 8.95 0 0 1-2.846-.45 7.556 7.556 0 0 1-2.383-1.29c-.694-.565-1.246-1.288-1.659-2.176-.41-.892-.618-1.882-.618-2.976 0-2.038.66-3.698 1.97-4.998 1.314-1.3 3.026-1.949 5.137-1.949 2.082 0 3.771.648 5.056 1.923 1.29 1.271 1.931 2.91 1.931 4.905 0 .374-.025.737-.077 1.085l-10.027.038zM164.344 15.196c.618.63 1.156 1.624 1.61 2.977l1.878 5.141 3.32-8.733h3.58l.166.256-5.38 12.935h-3.37l-3.618-8.607c-.347-.886-.771-1.341-1.275-1.341-.27-.024-.502.039-.696.207l-.257-.127-.525-2.875.156-.298c.511-.32 1.158-.472 1.926-.472 1.044 0 1.866.307 2.485.937" mask="url(#b)"/>
        <path fill="#EE453D" d="M30.476 12.344L17.926.531a1.95 1.95 0 0 0-2.673 0L2.703 12.344a3.91 3.91 0 0 0-1.056 1.695L0 19.387v2.111h33.18v-2.111l-1.648-5.348a3.913 3.913 0 0 0-1.056-1.695" mask="url(#b)" opacity=".4"/>
        <path fill="#EE453D" d="M16.578 32.073c4.263 0 7.748-3.337 7.989-7.544a.28.28 0 0 0-.397-.27c-2.531 1.172-5.061 1.758-7.592 1.758-2.537 0-5.073-.589-7.609-1.766a.269.269 0 0 0-.381.259c.231 4.216 3.72 7.563 7.99 7.563zM32.57 18.325c.39.37.61.882.61 1.419v14.099a1.952 1.952 0 0 1-1.952 1.954H1.952A1.953 1.953 0 0 1 0 33.843V19.744c0-.537.22-1.05.61-1.419L15.246 4.443a1.95 1.95 0 0 1 2.685 0L32.57 18.325z" mask="url(#b)"/>
    </g>
</svg>
